<svg width="149" height="82" viewBox="0 0 149 82" fill="none" xmlns="http://www.w3.org/2000/svg">
<path fill-rule="evenodd" clip-rule="evenodd" d="M23.6886 1.20943C25.1456 1.96839 26.0751 3.8843 26.47 6.64744C27.206 11.7976 25.652 15.4865 22.8437 18.0222C20.1918 20.4168 16.4828 21.7292 12.7274 22.3739C11.8765 29.0217 11.8558 37.1618 13.2832 46.587C17.3296 43.3477 22.3919 38.348 27.4695 28.5559C27.6311 28.2443 28.0052 28.1092 28.3287 28.2456C28.6522 28.382 28.8165 28.744 28.706 29.0771C27.4027 33.0064 26.4017 36.588 26.3666 39.1661C26.3491 40.4544 26.5763 41.3803 27.0203 41.9728C27.4359 42.5275 28.1258 42.8994 29.3246 42.8994C31.1136 42.8994 32.6771 42.0865 34.0439 40.7868C35.4162 39.482 36.5538 37.7187 37.4632 35.9159C38.37 34.1184 39.0336 32.315 39.4709 30.9572C39.6892 30.2794 39.8502 29.7154 39.9564 29.3221C39.9832 29.2227 40.0066 29.1343 40.0264 29.0577C40.0384 29.0087 40.0493 28.9644 40.059 28.925C40.0771 28.8521 40.0912 28.7959 40.1008 28.7576C40.103 28.7491 40.1049 28.7415 40.1066 28.7348C40.1087 28.7264 40.1105 28.7194 40.1119 28.7139L40.1158 28.6986C40.1159 28.6984 40.1159 28.6982 40.7679 28.8654C41.4237 29.0167 41.4237 29.0169 41.4236 29.0172L41.4228 29.0207L41.4206 29.03C41.4187 29.038 41.416 29.0495 41.4124 29.0643C41.4091 29.0782 41.4051 29.0949 41.4003 29.1145C41.3948 29.137 41.3883 29.1633 41.3809 29.1931C41.3677 29.2462 41.3514 29.3107 41.3319 29.3859C41.3008 29.5132 41.2623 29.6724 41.2181 29.8594C41.0939 30.3842 40.9243 31.1275 40.7427 31.9998C40.3786 33.7485 39.9702 35.9986 39.7814 38.0411C39.6869 39.063 39.6489 40.0165 39.6949 40.8207C39.7418 41.6434 39.8732 42.2328 40.0618 42.5807C40.151 42.7455 40.2353 42.8225 40.2972 42.8588C40.351 42.8902 40.4301 42.9164 40.571 42.8987C40.8983 42.8577 41.4655 42.5903 42.3302 41.8145C44.6032 39.7753 46.3588 37.6344 47.9586 35.6733C47.0475 26.2966 49.2551 19.6989 51.8107 16.3344C52.4573 15.4831 53.1393 14.8219 53.8168 14.3793C54.4876 13.9409 55.2023 13.6868 55.8918 13.7409C56.6154 13.7978 57.2152 14.1879 57.6089 14.8369C57.9869 15.4601 58.1657 16.2999 58.1657 17.3012C58.1657 20.2194 56.8905 26.7761 49.3549 36.0899C49.5733 38.0894 49.9374 40.2229 50.4766 42.4867C50.4794 42.4983 50.4818 42.5099 50.4839 42.5215C50.5183 42.7094 50.5708 42.7988 50.6023 42.8372C50.6269 42.8671 50.654 42.8865 50.7082 42.8992C50.8595 42.9348 51.1872 42.9046 51.7435 42.645C52.8229 42.1415 54.2971 40.9992 55.9027 39.4551C59.1015 36.3789 62.5889 31.9371 64.1775 28.578C64.3364 28.2421 64.7376 28.0985 65.0737 28.2572C65.4098 28.416 65.5534 28.817 65.3946 29.1529C62.1596 35.9933 61.9293 39.9649 62.5181 42.013C62.81 43.0283 63.2892 43.5343 63.665 43.742C64.0671 43.9642 64.2862 43.8437 64.3205 43.8108C65.7084 42.4826 66.7453 40.7006 67.6737 38.7596C68.073 37.9247 68.4465 37.0734 68.8195 36.2229C68.8792 36.0869 68.9389 35.9509 68.9986 35.815C69.2341 35.2795 69.4708 34.7458 69.7135 34.2237C69.7151 34.2202 69.7168 34.2166 69.7184 34.2131C69.9182 33.7835 70.1219 33.3618 70.3322 32.9534C71.2595 31.1528 72.3608 29.5134 73.9313 28.5581C75.5443 27.5768 77.5386 27.3815 80.0901 28.2269C82.1289 28.9023 83.3264 30.7029 83.7252 32.8657C84.116 34.9854 83.764 37.5237 82.6693 39.9725C82.6785 41.8751 82.8704 42.9826 83.1372 43.5441C83.2669 43.8168 83.3759 43.8794 83.4121 43.8942C83.4436 43.9071 83.5326 43.9309 83.7399 43.8485C84.1968 43.6668 84.8418 43.1248 85.6632 42.214C86.4617 41.3287 87.3505 40.1843 88.3032 38.9158C88.642 38.4648 88.9887 37.9982 89.3414 37.5234C90.9544 35.3523 92.6937 33.0111 94.3749 31.2192C95.3993 30.1272 96.4415 29.195 97.4611 28.6249C98.4807 28.0548 99.5873 27.7902 100.642 28.2485C101.904 28.7971 102.454 30.0232 102.636 31.3599C102.819 32.7005 102.662 34.3138 102.364 35.9312C102.258 36.507 102.132 37.0921 101.994 37.6749C102.592 36.7119 103.242 35.7353 103.924 34.796C105.171 33.0772 106.547 31.4514 107.929 30.2481C109.286 29.0666 110.76 28.1927 112.194 28.1927C112.97 28.1927 113.623 28.4489 114.133 28.9281C114.626 29.3927 114.941 30.0256 115.139 30.7155C115.533 32.0838 115.526 33.8771 115.347 35.6854C115.129 37.8862 114.643 40.2277 114.195 42.0866C115.353 40.5281 116.377 38.7975 117.392 37.08C117.881 36.2539 118.367 35.4308 118.866 34.6314C118.901 34.5759 118.936 34.5206 118.97 34.4653C119.007 34.3825 119.044 34.3 119.082 34.2179C119.131 34.1127 119.204 34.0262 119.292 33.9617C121.182 31.0419 123.354 28.5007 126.537 28.1958C129.712 27.8917 131.925 28.6405 133.139 30.4277C133.872 31.5072 134.179 32.8844 134.181 34.4476C134.276 34.3538 134.373 34.2673 134.472 34.1901C134.865 33.8849 135.504 33.5808 136.147 33.9617C136.693 34.2857 136.969 34.9766 137.124 35.7767C137.243 36.3893 137.174 37.1292 137.05 37.8535C136.923 38.5924 136.722 39.3955 136.527 40.1579C136.51 40.2255 136.492 40.2927 136.475 40.3596C136.296 41.0588 136.128 41.7156 136.017 42.292C135.89 42.9504 135.864 43.3858 135.916 43.6174C135.916 43.6204 135.917 43.6234 135.918 43.6262C135.92 43.626 135.921 43.6258 135.923 43.6255C136.183 43.5917 136.716 43.3659 137.65 42.7065C139.47 41.4204 142.442 38.761 147.158 34.0277C147.421 33.7644 147.847 33.7635 148.11 34.0257C148.374 34.2879 148.374 34.7138 148.112 34.9771C143.397 39.7091 140.352 42.4447 138.427 43.8051C137.487 44.469 136.716 44.8793 136.097 44.9597C135.762 45.0032 135.402 44.959 135.098 44.7312C134.802 44.5092 134.665 44.1916 134.602 43.91C134.483 43.3773 134.569 42.6916 134.695 42.0376C134.814 41.419 134.993 40.7221 135.169 40.0334C135.187 39.9638 135.205 39.8943 135.223 39.825C135.419 39.0573 135.606 38.304 135.723 37.6255C135.842 36.9324 135.873 36.3939 135.803 36.0323C135.734 35.6789 135.653 35.4427 135.578 35.2924C135.536 35.2082 135.502 35.1624 135.481 35.1392C135.448 35.1512 135.39 35.1813 135.298 35.2522C135.066 35.4332 134.789 35.7656 134.516 36.2008C134.249 36.6267 134.014 37.1073 133.85 37.5429C133.259 39.1067 132.393 40.4784 131.569 41.5286C130.755 42.5664 129.946 43.3372 129.439 43.6699C127.139 45.1787 125.119 45.8368 123.407 45.7906C121.669 45.7438 120.313 44.9715 119.397 43.7656C118.389 42.44 117.929 40.6271 117.993 38.7092C116.621 41.0092 115.123 43.3766 113.281 45.2348C113.066 45.4522 112.731 45.4968 112.466 45.3434C112.201 45.1899 112.073 44.8771 112.154 44.5822C112.595 42.9875 113.66 39.0646 114.007 35.553C114.182 33.7854 114.166 32.2018 113.845 31.0872C113.687 30.5357 113.468 30.1506 113.21 29.9076C112.967 29.6792 112.65 29.5381 112.194 29.5381C111.27 29.5381 110.114 30.1298 108.813 31.2625C107.538 32.3734 106.23 33.9104 105.013 35.5861C102.577 38.9428 100.6 42.7279 100.032 44.4923C99.9855 44.6551 99.9447 44.8021 99.9104 44.9325C99.817 45.2871 99.4567 45.5016 99.1003 45.415C98.7439 45.3283 98.5225 44.9723 98.6026 44.6145C98.6385 44.454 98.6864 44.2821 98.7439 44.1015C98.8787 43.633 99.0508 43.0766 99.2424 42.4573C99.8312 40.5543 100.604 38.0569 101.04 35.6876C101.33 34.1165 101.456 32.6701 101.302 31.5419C101.148 30.4099 100.739 29.7581 100.105 29.4823C99.5971 29.2617 98.9579 29.3296 98.1183 29.7991C97.2786 30.2686 96.3482 31.0827 95.3569 32.1394C93.7342 33.8691 92.0539 36.1301 90.4416 38.2997C90.0839 38.781 89.7295 39.2579 89.3798 39.7235C88.4259 40.9936 87.5057 42.1807 86.6631 43.1149C85.8435 44.0237 85.0154 44.7893 84.2375 45.0986C83.8275 45.2616 83.3587 45.3268 82.9007 45.1388C82.4475 44.9528 82.1355 44.5721 81.9213 44.1214C81.691 43.6368 81.5317 42.9827 81.4357 42.1531C79.8002 44.4389 77.7458 45.3844 75.812 45.5696C74.6185 45.6839 73.4968 45.5063 72.5809 45.2086C71.6808 44.9159 70.9199 44.4874 70.4819 44.0457C69.4659 43.0212 68.9709 41.3446 68.8632 39.6156C68.859 39.5489 68.8554 39.4819 68.8524 39.4146C67.9119 41.3712 66.7992 43.3015 65.2516 44.7826C64.6572 45.3514 63.7475 45.325 63.0136 44.9194C62.2534 44.4993 61.5896 43.6554 61.2243 42.3846C60.7521 40.7421 60.7558 38.3283 61.7199 34.9313C60.1974 36.9153 58.4748 38.8487 56.8361 40.4246C55.2065 41.9918 53.6013 43.2631 52.3129 43.8642C51.6853 44.157 51.007 44.3518 50.3996 44.2088C50.0745 44.1323 49.7842 43.9615 49.5618 43.6908C49.3503 43.4333 49.2271 43.1184 49.1632 42.7822C48.7277 40.9517 48.4033 39.201 48.1759 37.5319C46.7784 39.2248 45.1916 41.0554 43.2295 42.8158C42.319 43.6326 41.492 44.1393 40.7385 44.2337C40.339 44.2838 39.956 44.2179 39.6177 44.0202C39.2875 43.8272 39.0495 43.5379 38.8781 43.2215C38.5451 42.6071 38.401 41.7752 38.3509 40.8974C38.2997 40.0011 38.3431 38.9747 38.4409 37.9173C38.4779 37.5169 38.523 37.1097 38.5742 36.7006C37.6419 38.5168 36.451 40.3551 34.9718 41.7616C33.4386 43.2194 31.5596 44.2448 29.3246 44.2448C27.8198 44.2448 26.6759 43.7578 25.9427 42.7793C25.2379 41.8385 25.0014 40.5568 25.0206 39.1478C25.0397 37.739 25.318 36.0911 25.7535 34.307C21.3236 41.4274 17.0268 45.3813 13.5248 48.1109C15.0242 57.1617 17.8503 67.3529 22.5262 78.5077C22.5338 78.5259 22.5406 78.5444 22.5466 78.5631C22.802 79.3631 22.8533 80.1565 22.4527 80.7538C22.0257 81.3902 21.2805 81.534 20.5879 81.4638C19.2156 81.3248 17.3165 80.3099 15.3377 78.619C11.3277 75.1925 6.62786 68.6828 4.64783 59.2975C4.64735 59.2952 4.64688 59.2929 4.64642 59.2906C4.3363 57.7406 4.31067 56.4456 4.566 55.3071C4.82312 54.1607 5.35503 53.2182 6.09015 52.3624C6.81612 51.5173 7.7453 50.7514 8.7981 49.9558C9.25285 49.6122 9.71808 49.2719 10.2042 48.9164C10.7891 48.4886 11.4042 48.0387 12.0677 47.5342C10.5354 37.8575 10.5024 29.468 11.3447 22.5819C8.3631 22.9691 5.37924 22.9737 2.85011 22.7719L5.848 26.8319C6.06874 27.1309 6.00521 27.552 5.70611 27.7726C5.40701 27.9933 4.9856 27.9298 4.76486 27.6308L0.866622 22.3515C0.707094 22.1355 0.691388 21.8453 0.826667 21.6133C0.961946 21.3813 1.2223 21.252 1.48901 21.2842C4.29252 21.6231 7.93445 21.705 11.5283 21.1994C12.8758 11.8062 15.885 5.321 18.8988 2.49467C20.4249 1.06353 22.1534 0.409712 23.6886 1.20943ZM12.9222 20.9723C14.2801 11.9316 17.1756 5.95572 19.8199 3.47581C21.1934 2.18774 22.2987 2.0026 23.0665 2.40254C23.9125 2.84324 24.7554 4.16559 25.1373 6.83769C25.8147 11.5774 24.3935 14.8095 21.9413 17.0239C19.6474 19.0952 16.3931 20.3266 12.9222 20.9723ZM12.3152 49.0322C11.8479 49.3811 11.3936 49.7137 10.9628 50.029C10.4768 50.3848 10.0208 50.7186 9.60999 51.029C8.57151 51.8138 7.73894 52.5084 7.11154 53.2388C6.49329 53.9586 6.08021 54.7068 5.87957 55.6014C5.67731 56.5032 5.68099 57.5984 5.96578 59.0234C7.88442 68.1138 12.4265 74.3613 16.2125 77.5964C18.1319 79.2365 19.7696 80.0286 20.7236 80.1252C21.1942 80.1729 21.3096 80.0417 21.3346 80.0045C21.3851 79.9291 21.4778 79.6567 21.2727 78.9993C16.6856 68.0504 13.8593 58.0065 12.3152 49.0322ZM70.9444 34.7689C70.3599 36.2378 70.1094 37.9698 70.2067 39.532C70.3059 41.1244 70.7566 42.4115 71.438 43.0985C71.6731 43.3356 72.2165 43.6753 72.9973 43.9291C73.7623 44.1778 74.6981 44.3247 75.6836 44.2303C77.6095 44.0458 79.8314 42.9307 81.3841 39.5476C82.4332 37.2617 82.7406 34.9497 82.4013 33.1095C82.0627 31.2731 81.1053 29.9807 79.6665 29.504C77.3943 28.7512 75.829 28.9787 74.6312 29.7073C73.3908 30.4619 72.4302 31.8195 71.5292 33.5692C71.3301 33.9556 71.1363 34.3565 70.9444 34.7689ZM120.164 35.096C118.917 38.0088 119.119 41.1766 120.468 42.9516C121.146 43.8435 122.127 44.4102 123.443 44.4457C124.785 44.4818 126.535 43.9654 128.7 42.5452C129.034 42.3258 129.739 41.6811 130.51 40.6986C131.26 39.7415 132.038 38.5084 132.569 37.1239C133.052 34.4494 132.88 32.4422 132.025 31.1834C131.206 29.9777 129.605 29.2535 126.666 29.5351C124.045 29.7861 122.135 31.9804 120.164 35.096ZM135.515 35.1328C135.515 35.1341 135.509 35.1357 135.498 35.1338C135.51 35.1308 135.515 35.1317 135.515 35.1328ZM49.1841 34.1372C55.7884 25.603 56.8195 19.7382 56.8195 17.3012C56.8195 16.4367 56.6615 15.8703 56.4577 15.5344C56.2696 15.2242 56.0426 15.1024 55.7863 15.0822C55.4958 15.0594 55.0772 15.1632 54.5534 15.5054C54.0362 15.8434 53.462 16.3855 52.8829 17.148C50.7031 20.0176 48.6379 25.7677 49.1841 34.1372ZM40.7679 28.8654L41.4237 29.0167C41.5066 28.6578 41.2852 28.299 40.9272 28.2118C40.5691 28.1246 40.2075 28.3415 40.1159 28.6982L40.7679 28.8654Z" fill="black"/>
<path d="M40.7679 28.8654C40.1159 28.6982 40.1159 28.6984 40.1158 28.6986L40.1119 28.7139C40.1105 28.7194 40.1087 28.7264 40.1066 28.7348C40.1049 28.7415 40.103 28.7491 40.1008 28.7576C40.0912 28.7959 40.0771 28.8521 40.059 28.925C40.0493 28.9644 40.0384 29.0087 40.0264 29.0577C40.0066 29.1343 39.9832 29.2227 39.9564 29.3221C39.8502 29.7154 39.6892 30.2794 39.4709 30.9572C39.0336 32.315 38.37 34.1184 37.4632 35.9159C36.5538 37.7187 35.4162 39.482 34.0439 40.7868C32.6771 42.0865 31.1136 42.8994 29.3246 42.8994C28.1258 42.8994 27.4359 42.5275 27.0203 41.9728C26.5763 41.3803 26.3491 40.4544 26.3666 39.1661C26.4017 36.588 27.4027 33.0064 28.706 29.0771C28.8165 28.744 28.6522 28.382 28.3287 28.2456C28.0052 28.1092 27.6311 28.2443 27.4695 28.5559C22.3919 38.3481 17.3296 43.3477 13.2832 46.587C11.8558 37.1617 11.8765 29.0217 12.7274 22.3739C16.4828 21.7292 20.1918 20.4168 22.8437 18.0222C25.652 15.4865 27.206 11.7976 26.47 6.64744C26.0751 3.8843 25.1456 1.96839 23.6886 1.20943C22.1534 0.409712 20.4249 1.06353 18.8988 2.49467C15.885 5.321 12.8758 11.8062 11.5283 21.1994C7.93445 21.705 4.29252 21.6231 1.48901 21.2842C1.2223 21.252 0.961946 21.3813 0.826667 21.6133C0.691388 21.8453 0.707094 22.1355 0.866622 22.3515L4.76486 27.6308C4.9856 27.9298 5.40701 27.9933 5.70611 27.7726C6.00521 27.552 6.06874 27.1309 5.848 26.8319L2.85011 22.7719C5.37924 22.9737 8.3631 22.9691 11.3447 22.5819C10.5024 29.468 10.5354 37.8575 12.0677 47.5342C11.4042 48.0387 10.7891 48.4886 10.2042 48.9164C9.71808 49.2719 9.25285 49.6122 8.7981 49.9558C7.7453 50.7514 6.81612 51.5173 6.09015 52.3624C5.35503 53.2182 4.82312 54.1607 4.56601 55.3071C4.31067 56.4456 4.3363 57.7406 4.64642 59.2906C4.64688 59.2929 4.64735 59.2952 4.64783 59.2975C6.62786 68.6828 11.3277 75.1925 15.3377 78.619C17.3165 80.3099 19.2156 81.3248 20.5879 81.4638C21.2805 81.534 22.0257 81.3902 22.4527 80.7538C22.8533 80.1565 22.802 79.3631 22.5466 78.5631C22.5406 78.5444 22.5338 78.5259 22.5262 78.5077C17.8503 67.3528 15.0242 57.1617 13.5248 48.1109C17.0268 45.3813 21.3236 41.4274 25.7535 34.307C25.318 36.0911 25.0397 37.739 25.0206 39.1478C25.0014 40.5568 25.2379 41.8385 25.9427 42.7793C26.6759 43.7578 27.8198 44.2448 29.3246 44.2448C31.5596 44.2448 33.4386 43.2194 34.9718 41.7616C36.451 40.3551 37.6419 38.5168 38.5742 36.7006C38.523 37.1097 38.4779 37.5169 38.4409 37.9173C38.3431 38.9747 38.2997 40.0011 38.3509 40.8974C38.401 41.7752 38.5451 42.6071 38.8781 43.2215C39.0495 43.5379 39.2875 43.8272 39.6177 44.0202C39.956 44.2179 40.339 44.2838 40.7385 44.2337C41.492 44.1393 42.319 43.6326 43.2295 42.8158C45.1916 41.0554 46.7784 39.2248 48.1759 37.5319C48.4033 39.2009 48.7277 40.9517 49.1632 42.7821C49.2271 43.1184 49.3503 43.4333 49.5618 43.6908C49.7842 43.9615 50.0745 44.1323 50.3996 44.2088C51.007 44.3518 51.6853 44.157 52.3129 43.8642C53.6013 43.2631 55.2065 41.9918 56.8361 40.4246C58.4748 38.8487 60.1974 36.9153 61.7199 34.9313C60.7558 38.3283 60.7521 40.7421 61.2243 42.3846C61.5896 43.6554 62.2534 44.4993 63.0136 44.9194C63.7475 45.325 64.6572 45.3514 65.2516 44.7826C66.7992 43.3015 67.9119 41.3712 68.8524 39.4146C68.8554 39.4819 68.859 39.5489 68.8632 39.6156C68.9709 41.3446 69.4659 43.0212 70.4819 44.0457C70.9199 44.4874 71.6808 44.9159 72.5809 45.2086C73.4968 45.5063 74.6185 45.6839 75.812 45.5696C77.7458 45.3844 79.8002 44.4389 81.4357 42.1531C81.5317 42.9828 81.691 43.6368 81.9213 44.1214C82.1355 44.5721 82.4475 44.9528 82.9007 45.1388C83.3587 45.3268 83.8275 45.2616 84.2375 45.0986C85.0154 44.7893 85.8435 44.0237 86.6631 43.1149C87.5057 42.1807 88.4259 40.9936 89.3798 39.7235C89.7295 39.2579 90.0839 38.781 90.4416 38.2997C92.0539 36.1301 93.7342 33.8691 95.3569 32.1394C96.3482 31.0827 97.2786 30.2686 98.1183 29.7991C98.9579 29.3296 99.5971 29.2617 100.105 29.4823C100.739 29.7581 101.148 30.4099 101.302 31.5419C101.456 32.6701 101.33 34.1165 101.04 35.6876C100.604 38.0569 99.8312 40.5543 99.2424 42.4573C99.0508 43.0766 98.8787 43.633 98.7439 44.1015C98.6864 44.2821 98.6385 44.454 98.6026 44.6145C98.5225 44.9723 98.7439 45.3283 99.1003 45.415C99.4567 45.5016 99.817 45.2871 99.9104 44.9325C99.9447 44.8021 99.9855 44.6551 100.032 44.4923C100.6 42.7279 102.577 38.9428 105.013 35.5861C106.23 33.9104 107.538 32.3734 108.813 31.2625C110.114 30.1298 111.27 29.5381 112.194 29.5381C112.65 29.5381 112.967 29.6792 113.21 29.9076C113.468 30.1506 113.687 30.5357 113.845 31.0872C114.166 32.2018 114.182 33.7854 114.007 35.553C113.66 39.0646 112.595 42.9875 112.154 44.5822C112.073 44.8771 112.201 45.1899 112.466 45.3434C112.731 45.4968 113.066 45.4522 113.281 45.2348C115.123 43.3766 116.621 41.0092 117.993 38.7092C117.929 40.6271 118.389 42.44 119.397 43.7656C120.313 44.9716 121.669 45.7438 123.407 45.7906C125.119 45.8368 127.139 45.1787 129.439 43.6699C129.946 43.3372 130.755 42.5664 131.569 41.5286C132.393 40.4784 133.259 39.1067 133.85 37.5429C134.014 37.1073 134.249 36.6267 134.516 36.2008C134.789 35.7656 135.065 35.4332 135.298 35.2522C135.39 35.1813 135.448 35.1512 135.481 35.1392C135.502 35.1624 135.536 35.2082 135.578 35.2924C135.653 35.4427 135.734 35.6789 135.803 36.0323C135.873 36.3939 135.842 36.9324 135.723 37.6255C135.606 38.304 135.419 39.0573 135.223 39.825C135.205 39.8943 135.187 39.9638 135.169 40.0334C134.993 40.7221 134.815 41.419 134.695 42.0376C134.569 42.6916 134.483 43.3773 134.602 43.91C134.665 44.1916 134.802 44.5092 135.098 44.7312C135.402 44.959 135.762 45.0032 136.097 44.9597C136.716 44.8793 137.487 44.469 138.427 43.8051C140.352 42.4447 143.397 39.7091 148.112 34.9771C148.374 34.7138 148.374 34.2879 148.11 34.0257C147.847 33.7635 147.421 33.7644 147.158 34.0277C142.442 38.761 139.47 41.4204 137.65 42.7065C136.716 43.3659 136.183 43.5917 135.923 43.6255C135.921 43.6258 135.92 43.626 135.918 43.6262C135.917 43.6234 135.916 43.6204 135.916 43.6174C135.864 43.3858 135.89 42.9504 136.017 42.292C136.128 41.7156 136.296 41.0588 136.475 40.3596C136.492 40.2927 136.51 40.2255 136.527 40.1579C136.722 39.3955 136.923 38.5924 137.05 37.8535C137.174 37.1292 137.243 36.3893 137.124 35.7767C136.969 34.9766 136.693 34.2857 136.147 33.9617C135.504 33.5808 134.865 33.8849 134.472 34.1901C134.373 34.2673 134.276 34.3538 134.181 34.4476C134.179 32.8844 133.872 31.5072 133.139 30.4277C131.925 28.6405 129.712 27.8917 126.537 28.1958C123.354 28.5007 121.182 31.0419 119.292 33.9617C119.204 34.0262 119.131 34.1127 119.082 34.2179C119.044 34.3 119.007 34.3825 118.97 34.4653C118.936 34.5206 118.901 34.5759 118.866 34.6314C118.367 35.4308 117.881 36.2539 117.392 37.08C116.376 38.7975 115.353 40.5281 114.195 42.0866C114.643 40.2277 115.129 37.8863 115.347 35.6854C115.526 33.8771 115.533 32.0838 115.139 30.7155C114.941 30.0256 114.626 29.3927 114.133 28.9281C113.623 28.4489 112.97 28.1927 112.194 28.1927C110.76 28.1927 109.286 29.0666 107.929 30.2481C106.547 31.4514 105.171 33.0772 103.924 34.796C103.242 35.7353 102.592 36.7119 101.994 37.6749C102.132 37.0921 102.258 36.507 102.364 35.9312C102.662 34.3138 102.819 32.7005 102.636 31.3599C102.454 30.0232 101.904 28.7971 100.642 28.2485C99.5873 27.7902 98.4807 28.0548 97.4611 28.6249C96.4415 29.195 95.3993 30.1272 94.3749 31.2192C92.6937 33.0111 90.9544 35.3523 89.3414 37.5234C88.9887 37.9982 88.642 38.4648 88.3032 38.9158C87.3505 40.1843 86.4617 41.3287 85.6632 42.214C84.8418 43.1248 84.1968 43.6668 83.7399 43.8485C83.5326 43.9309 83.4436 43.9071 83.4121 43.8942C83.3759 43.8794 83.2669 43.8168 83.1372 43.5441C82.8704 42.9826 82.6785 41.8751 82.6693 39.9725C83.764 37.5237 84.116 34.9854 83.7252 32.8657C83.3264 30.7029 82.1289 28.9023 80.0901 28.2269C77.5385 27.3815 75.5442 27.5768 73.9313 28.5581C72.3608 29.5134 71.2595 31.1528 70.3322 32.9534C70.1219 33.3618 69.9182 33.7835 69.7184 34.213C69.7168 34.2166 69.7151 34.2202 69.7135 34.2237C69.4708 34.7458 69.2341 35.2795 68.9986 35.815C68.9389 35.9509 68.8792 36.0869 68.8195 36.2229C68.4465 37.0734 68.073 37.9247 67.6737 38.7596C66.7453 40.7006 65.7084 42.4826 64.3205 43.8108C64.2862 43.8437 64.0671 43.9642 63.665 43.742C63.2892 43.5343 62.81 43.0283 62.5181 42.013C61.9293 39.9649 62.1596 35.9933 65.3946 29.1529C65.5534 28.817 65.4098 28.416 65.0737 28.2572C64.7376 28.0985 64.3364 28.2421 64.1775 28.578C62.5889 31.9371 59.1015 36.3789 55.9027 39.4551C54.2971 40.9992 52.8229 42.1415 51.7435 42.645C51.1872 42.9046 50.8595 42.9348 50.7082 42.8992C50.654 42.8865 50.6269 42.8671 50.6023 42.8372C50.5708 42.7988 50.5183 42.7094 50.4839 42.5215C50.4818 42.5099 50.4794 42.4983 50.4766 42.4867C49.9374 40.2229 49.5733 38.0894 49.3549 36.0899C56.8905 26.7761 58.1657 20.2194 58.1657 17.3012C58.1657 16.2999 57.9869 15.4601 57.6089 14.8369C57.2152 14.1879 56.6154 13.7978 55.8918 13.7409C55.2023 13.6868 54.4876 13.9409 53.8168 14.3793C53.1393 14.822 52.4573 15.4831 51.8107 16.3344C49.2551 19.6989 47.0475 26.2966 47.9586 35.6733C46.3588 37.6344 44.6032 39.7753 42.3302 41.8145C41.4655 42.5903 40.8983 42.8577 40.571 42.8987C40.4302 42.9164 40.351 42.8902 40.2972 42.8588C40.2353 42.8225 40.151 42.7455 40.0618 42.5807C39.8732 42.2328 39.7418 41.6434 39.6949 40.8207C39.6489 40.0165 39.6869 39.063 39.7814 38.0411C39.9702 35.9986 40.3786 33.7485 40.7427 31.9998C40.9243 31.1275 41.0939 30.3842 41.2181 29.8594C41.2623 29.6724 41.3008 29.5132 41.3319 29.3859C41.3514 29.3107 41.3677 29.2462 41.3809 29.1931C41.3883 29.1633 41.3948 29.137 41.4003 29.1145C41.4051 29.0949 41.4091 29.0782 41.4124 29.0643C41.416 29.0495 41.4187 29.038 41.4206 29.03L41.4228 29.0207L41.4236 29.0172C41.4237 29.0169 41.4237 29.0167 40.7679 28.8654ZM40.7679 28.8654L41.4237 29.0167C41.5066 28.6578 41.2852 28.299 40.9272 28.2118C40.5691 28.1246 40.2075 28.3415 40.1159 28.6982L40.7679 28.8654ZM12.9222 20.9723C14.2801 11.9316 17.1756 5.95572 19.8199 3.47581C21.1934 2.18774 22.2987 2.0026 23.0665 2.40254C23.9125 2.84324 24.7554 4.16559 25.1373 6.83769C25.8147 11.5774 24.3935 14.8095 21.9413 17.0239C19.6474 19.0952 16.3931 20.3266 12.9222 20.9723ZM10.9628 50.029C11.3936 49.7137 11.8479 49.3811 12.3152 49.0322C13.8593 58.0065 16.6856 68.0504 21.2727 78.9993C21.4778 79.6567 21.3851 79.9291 21.3346 80.0045C21.3096 80.0417 21.1942 80.1729 20.7236 80.1252C19.7696 80.0286 18.1319 79.2365 16.2125 77.5964C12.4265 74.3613 7.88442 68.1138 5.96578 59.0234C5.68099 57.5984 5.67731 56.5032 5.87957 55.6014C6.08021 54.7068 6.49329 53.9586 7.11154 53.2388C7.73894 52.5084 8.57151 51.8138 9.60999 51.029C10.0208 50.7186 10.4768 50.3848 10.9628 50.029ZM70.2067 39.532C70.1094 37.9698 70.3599 36.2378 70.9444 34.7689C71.1363 34.3565 71.3301 33.9556 71.5292 33.5692C72.4302 31.8195 73.3908 30.4619 74.6312 29.7073C75.829 28.9787 77.3943 28.7512 79.6665 29.504C81.1053 29.9807 82.0627 31.2731 82.4013 33.1095C82.7406 34.9497 82.4332 37.2617 81.3841 39.5476C79.8314 42.9307 77.6095 44.0458 75.6836 44.2303C74.6981 44.3247 73.7623 44.1778 72.9973 43.9291C72.2165 43.6753 71.6731 43.3356 71.438 43.0985C70.7566 42.4115 70.3059 41.1244 70.2067 39.532ZM120.468 42.9516C119.119 41.1766 118.917 38.0088 120.164 35.096C122.135 31.9804 124.045 29.7861 126.666 29.5351C129.605 29.2535 131.206 29.9777 132.025 31.1834C132.88 32.4422 133.052 34.4494 132.569 37.1239C132.038 38.5084 131.26 39.7415 130.51 40.6986C129.739 41.6811 129.034 42.3258 128.7 42.5452C126.535 43.9654 124.785 44.4818 123.443 44.4457C122.127 44.4102 121.146 43.8435 120.468 42.9516ZM135.515 35.1328C135.515 35.1341 135.509 35.1357 135.498 35.1338C135.51 35.1308 135.515 35.1317 135.515 35.1328ZM56.8195 17.3012C56.8195 19.7382 55.7884 25.603 49.1841 34.1372C48.6379 25.7677 50.7031 20.0176 52.8829 17.148C53.462 16.3855 54.0362 15.8434 54.5534 15.5054C55.0772 15.1632 55.4958 15.0594 55.7863 15.0822C56.0426 15.1024 56.2696 15.2242 56.4577 15.5344C56.6615 15.8703 56.8195 16.4367 56.8195 17.3012Z" stroke="black" stroke-linecap="round" stroke-linejoin="round"/>
<path d="M68.5313 23.7631C68.5313 24.3005 68.0957 24.7361 67.5583 24.7361C67.0209 24.7361 66.5852 24.3005 66.5852 23.7631C66.5852 23.2257 67.0209 22.79 67.5583 22.79C68.0957 22.79 68.5313 23.2257 68.5313 23.7631Z" fill="black" stroke="black"/>
</svg>
