<svg width="120" height="70" viewBox="0 0 120 70" fill="none" xmlns="http://www.w3.org/2000/svg">
<path fill-rule="evenodd" clip-rule="evenodd" d="M17.1122 1.00755C17.4624 1.13232 17.6455 1.51828 17.5211 1.86962L6.25428 33.6956C7.61084 31.9053 9.1562 30.2149 10.6961 29.0914C12.1718 28.0147 13.8331 27.3216 15.3743 27.8676C16.927 28.4176 18.0149 30.1005 18.6564 32.8929C18.6762 32.9795 18.6963 33.0649 18.7166 33.1493C21.0534 29.8783 22.8408 27.7722 24.2744 26.4919C25.5511 25.3518 26.6354 24.7846 27.652 24.7196C28.6932 24.653 29.5039 25.1227 30.1874 25.6586C30.8766 26.199 31.1199 27.0869 31.1491 27.9784C31.179 28.8895 30.9931 29.951 30.6663 31.0387C30.0122 33.2156 28.7474 35.6474 27.226 37.4544C26.4648 38.3583 25.6166 39.1333 24.7206 39.6345C23.8217 40.1374 22.8317 40.3864 21.8344 40.1501C20.834 39.913 19.9498 39.217 19.2063 38.081C18.861 37.5534 18.5402 36.9227 18.2459 36.1814C16.8118 38.2848 15.182 40.7903 13.3207 43.7641C8.62719 51.2628 5.75649 56.9931 4.07463 61.0994C3.2336 63.1528 2.69222 64.7944 2.36844 66.0436C2.04075 67.3079 1.94732 68.1279 1.96867 68.5557C1.98725 68.9281 1.70138 69.2451 1.33016 69.2637C0.958946 69.2823 0.642951 68.9956 0.624368 68.6232C0.592688 67.9884 0.727276 67.0099 1.06576 65.7039C1.40815 64.3829 1.97109 62.6825 2.82963 60.5863C4.54692 56.3935 7.45634 50.5943 12.1807 43.0461C14.2903 39.6757 16.1149 36.8858 17.705 34.5887C17.5781 34.1526 17.4579 33.6886 17.3447 33.196C16.7291 30.5158 15.7965 29.449 14.926 29.1407C14.044 28.8282 12.8796 29.1678 11.4879 30.1833C8.74174 32.1868 5.84914 36.2924 4.27705 39.2589C4.11161 39.5711 3.73407 39.7024 3.41152 39.5599C3.08896 39.4173 2.93067 39.0493 3.04862 38.7162L16.2528 1.4178C16.3771 1.06646 16.7619 0.882783 17.1122 1.00755ZM19.1856 34.8203C19.5385 35.8951 19.9267 36.7216 20.3315 37.34C20.9473 38.281 21.5731 38.7008 22.1438 38.8361C22.7176 38.972 23.36 38.8497 24.0651 38.4553C24.7732 38.0592 25.5007 37.4109 26.1977 36.5832C27.5923 34.9268 28.7728 32.6618 29.3776 30.649C29.6802 29.6419 29.8272 28.7353 29.8039 28.0228C29.7799 27.2906 29.584 26.8992 29.3584 26.7224C28.7692 26.2603 28.2873 26.0318 27.7377 26.067C27.1634 26.1038 26.3586 26.4384 25.1694 27.5003C23.7083 28.8052 21.8004 31.084 19.1856 34.8203Z" fill="black" stroke="black" stroke-linecap="round" stroke-linejoin="round"/>
<path fill-rule="evenodd" clip-rule="evenodd" d="M117.354 17.0711C117.708 16.957 118.088 17.1498 118.203 17.5018C119.467 21.377 120.169 30.7117 112.747 37.0295C110.424 39.007 108.31 39.6745 106.404 39.3628C104.524 39.0553 103.018 37.8206 101.836 36.3691C100.649 34.9116 99.7262 33.158 99.0277 31.6684C98.7423 31.0598 98.4907 30.4868 98.2743 29.9942C98.2253 29.8827 98.1781 29.7753 98.1328 29.6725C97.878 29.095 97.6966 28.702 97.5674 28.4935C97.1797 27.8678 96.729 27.709 96.3335 27.7014C96.009 27.6952 95.685 27.7933 95.4319 27.9165C94.7541 33.306 89.8161 38.4553 83.9737 38.4553C82.4854 38.4553 81.213 38.1282 80.2305 37.4854C79.2383 36.8362 78.5818 35.8899 78.3041 34.7406C78.0305 33.6085 78.1273 32.3081 78.5878 30.9068C76.0798 33.3378 73.774 35.269 71.893 36.5237C70.5487 37.4203 69.3368 38.0301 68.3854 38.1668C67.9005 38.2365 67.3827 38.1974 66.9579 37.8974C66.5195 37.5877 66.3221 37.1023 66.2703 36.5873C66.2116 36.0047 66.2187 35.1443 66.2266 34.1821C66.23 33.7686 66.2336 33.3363 66.2321 32.8992C66.2272 31.3984 66.1671 29.756 65.8813 28.2893C65.5923 26.8065 65.0927 25.6138 64.2968 24.9034C63.547 24.2339 62.4158 23.8912 60.5837 24.3642C58.7987 24.8251 57.3278 26.0704 55.9502 27.769C54.9312 29.0255 54.0093 30.468 53.0613 31.9513C52.7193 32.4864 52.3738 33.0269 52.0192 33.5659C50.7058 35.5621 49.275 37.521 47.4948 38.8549C45.6817 40.2136 43.5131 40.9188 40.7914 40.4221C39.8275 40.2462 39.0399 39.8863 38.4333 39.3512C37.8255 38.815 37.4355 38.1346 37.2182 37.376C36.7911 35.8857 37.0207 34.0662 37.5569 32.2531C37.5976 32.1156 37.6402 31.9776 37.6846 31.8391L31.0312 40.8687C30.8112 41.1672 30.3895 41.2319 30.0892 41.0132C29.7889 40.7946 29.7238 40.3753 29.9438 40.0768L40.9684 25.115C41.6571 24.0509 42.3592 23.104 43.0055 22.3536C43.2412 22.0801 43.6522 22.0406 43.9361 22.2643C44.22 22.488 44.2752 22.8948 44.0612 23.1853L42.0793 25.8749C40.7772 27.8933 39.5239 30.3526 38.8501 32.6311C38.3398 34.3567 38.1915 35.8816 38.5145 37.0089C38.6722 37.5593 38.9393 38.0061 39.3279 38.3489C39.7178 38.6928 40.266 38.9638 41.0348 39.1041C43.348 39.5262 45.1397 38.9417 46.6835 37.7849C48.2602 36.6033 49.5829 34.8208 50.8912 32.8324C51.2222 32.3292 51.5532 31.8113 51.8868 31.2893C52.8474 29.7861 53.8301 28.2483 54.9008 26.928C56.3525 25.138 58.0503 23.6338 60.2449 23.0672C62.3925 22.5127 64.0271 22.8615 65.1974 23.9063C66.3218 24.9101 66.8967 26.4543 67.2046 28.0344C67.5157 29.6305 67.575 31.3772 67.58 32.8948C67.5817 33.3968 67.5778 33.8663 67.5742 34.297C67.5666 35.208 67.5604 35.9461 67.6115 36.4539C67.6393 36.7293 67.7205 36.7922 67.7385 36.8049C67.7701 36.8273 67.8866 36.8845 68.1926 36.8406C68.8232 36.75 69.82 36.2927 71.142 35.4109C73.7461 33.674 77.2869 30.5152 81.091 26.4227C84.9801 22.2385 88.6316 20.8909 91.3832 21.5006C93.8201 22.0406 95.311 24.0594 95.4819 26.4726C95.7543 26.3996 96.0507 26.3558 96.3593 26.3616C97.2081 26.3778 98.084 26.7722 98.715 27.7907C98.9042 28.096 99.1258 28.5872 99.3672 29.1342C99.414 29.2402 99.4621 29.3499 99.5117 29.4629C99.7279 29.9549 99.9717 30.5099 100.249 31.1022C100.934 32.5618 101.802 34.1972 102.883 35.526C103.97 36.8607 105.21 37.8095 106.623 38.0405C108.01 38.2674 109.736 37.8282 111.87 36.0116C118.711 30.1885 118.097 21.5226 116.921 17.9151C116.806 17.5632 117 17.1853 117.354 17.0711ZM82.1024 27.309C79.861 30.2351 79.2077 32.7435 79.6147 34.4275C79.8145 35.2542 80.2724 35.9086 80.9715 36.366C81.6803 36.8298 82.6763 37.1153 83.9737 37.1153C89.1494 37.1153 93.6767 32.3696 94.1271 27.449C94.3412 25.1109 93.1065 23.2554 91.0899 22.8086C89.0301 22.3521 85.8449 23.2922 82.1024 27.309Z" fill="black" stroke="black" stroke-linecap="round" stroke-linejoin="round"/>
<path d="M48.597 17.7077C48.597 18.291 48.1775 18.6808 47.7578 18.6808C47.3382 18.6808 46.9187 18.291 46.9187 17.7077C46.9187 17.1244 47.3382 16.7347 47.7578 16.7347C48.1775 16.7347 48.597 17.1244 48.597 17.7077Z" fill="black" stroke="black"/>
</svg>
